grf
version=1
nRows=21
nColumns=28
inDegrees=no
endheader
time	ground_force_1_vx	ground_force_1_vy	ground_force_1_vz	ground_force_1_px	ground_force_1_py	ground_force_1_pz	ground_moment_1_mx	ground_moment_1_my	ground_moment_1_mz	ground_force_2_vx	ground_force_2_vy	ground_force_2_vz	ground_force_2_px	ground_force_2_py	ground_force_2_pz	ground_moment_2_mx	ground_moment_2_my	ground_moment_2_mz	ground_force_3_vx	ground_force_3_vy	ground_force_3_vz	ground_force_3_px	ground_force_3_py	ground_force_3_pz	ground_moment_3_mx	ground_moment_3_my	ground_moment_3_mz
      0.31000000	      0.22678834	      0.24095119	      1.99214867	    306.43253532	  -1174.21213013	      1.87431044	      0.06742281	      0.24380175	    133.59022932	      0.60945849	      0.20417789	      2.81713153	    173.40960721	  -1663.31769915	      0.20126044	     -0.00973287	     -0.12587465	    150.83224173	      0.39452763	    -46.65880889	    -51.98882645	    502.71972883	   -661.08280314	      1.17010114	     -0.02105701	      0.15468328	     75.32149715
      0.32000000	      0.29780204	      0.22786642	      2.07732551	    330.98962220	  -1206.75495525	      1.92130707	      0.06439748	      0.23286213	    127.59590829	      0.73702269	      0.36855191	      2.18830072	     64.24474539	  -1595.93718498	      0.25044761	     -0.02175026	     -0.28129480	    337.06807770	     -2.68481792	    -17.94283853	    -16.62781856	    513.93448450	   -720.80174283	      1.29587759	     -0.06041783	      0.44382496	    216.11619245
      0.33000000	      0.54908668	      0.22096127	      1.74222670	    261.90798837	  -1207.23986738	      1.95705744	      0.03789483	      0.13702819	     75.08406786	      0.53466140	      0.05603563	      1.81312886	     34.44383110	  -1543.08451342	      0.29263198	     -0.00700046	     -0.09053646	    108.48743326	      0.60441336	     -2.43647633	      2.69348179	    420.49737578	    -99.01008466	     -0.00718038	      0.00750639	     -0.05514142	    -26.85057071
      0.34000000	      0.35864960	      0.27070520	      1.83387846	    297.93532153	  -1148.95566501	      1.83250601	      0.08117930	      0.29354540	    160.84707383	      0.57754171	      0.36000119	      2.35301643	    106.76292736	  -1604.88432516	      0.24572452	     -0.01700281	     -0.21989624	    263.49582358	      1.61580252	     -0.75490128	      4.98214387	    481.28588520	   -319.08269362	      0.46176379	     -0.09903050	      0.72747085	    354.23475997
      0.35000000	      0.44500967	      0.32806546	      2.37664387	    308.19917817	  -1235.77975285	      1.98577954	      0.07419977	      0.26830732	    147.01796342	      0.62189246	      0.35087096	      1.66663426	     -1.34975459	  -1454.09268297	      0.36458901	     -0.02376954	     -0.30741004	    368.36127590	      1.77798654	     -0.57485609	      4.78866467	    436.64047132	   -310.37863102	      0.43140762	     -0.08184597	      0.60123453	    292.76523049
      0.36000000	      0.35865033	      0.47359671	      2.69799940	    342.95722342	  -1212.82954039	      1.92635313	      0.08093740	      0.29267068	    160.36777469	      0.74157596	      0.31978519	      1.91618897	     59.75904604	  -1560.89754248	      0.27939993	     -0.01981879	     -0.25631516	    307.13564187	      1.71309333	     -0.70859144	      4.14136045	    437.79277315	   -274.53082906	      0.35811126	     -0.10319912	      0.75809319	    369.14600732
      0.37000000	      0.57019147	      0.43402073	      1.76883691	    291.26380507	  -1259.80731049	      2.03817701	      0.05778625	      0.20895584	    114.49654836	      0.60006786	      0.37868790	      2.18914743	     73.86304819	  -1534.12009468	      0.30265672	     -0.02069658	     -0.26766764	    320.73902167	      1.62552688	     -0.75345668	      4.40875409	    436.62423116	   -293.54732896	      0.39683764	     -0.10117391	      0.74321616	    361.90178673
      0.38000000	      0.55472975	      0.45480183	      1.47246263	    291.14740381	  -1305.00073215	      2.12071361	      0.07471851	      0.27018310	    148.04579201	      0.48855990	      0.17217864	      2.10449158	     92.18112184	  -1540.86672506	      0.29820846	     -0.01732298	     -0.22403708	    268.45767771	      1.52750808	     -0.78234298	      4.28843177	    462.76621170	   -307.86762227	      0.43355467	     -0.08835445	      0.64904534	    316.04623231
      0.39000000	      0.57385843	      0.33752654	      1.50599297	    235.91376441	  -1246.22858289	      2.04133097	      0.09485417	      0.34299391	    187.94219395	      0.68521665	      0.14013662	      2.21007482	    102.32101759	  -1590.37907755	      0.25754302	     -0.01312658	     -0.16976527	    203.42521412	      1.53135640	     -0.69530781	      4.65262990	    460.21767250	   -279.54924180	      0.37468642	     -0.11006325	      0.80851662	    393.69920218
      0.40000000	      0.28245488	      0.52762623	      1.42688520	    217.43100644	  -1264.76168052	      2.08448204	      0.12054254	      0.43588338	    238.84061998	      0.54440705	      0.23329770	      1.83775759	     59.18037712	  -1590.10077354	      0.25499150	     -0.01414993	     -0.18300021	    219.28428459	      1.58089538	     -0.65341635	      5.65377083	    416.27431032	   -345.63905350	      0.49812625	     -0.10483317	      0.77009682	    374.99105717
      0.41000000	      0.28289127	      0.45354344	      1.96984341	    306.78194300	  -1234.32394741	      1.98383797	      0.04522911	      0.16354906	     89.61607714	      0.62989590	      0.29883441	      1.68021318	    -11.91999057	  -1429.51417376	      0.38441854	     -0.02386436	     -0.30863625	    369.83061672	      1.55507335	     -0.70063741	      4.58455396	    467.78798260	   -320.57217810	      0.46104916	     -0.10337348	      0.75937401	    369.76968999
      0.42000000	      0.33145425	      0.34810239	      1.66100444	    264.14792554	  -1223.66104773	      1.98589555	      0.07640239	      0.27627205	    151.38220578	      0.62587175	      0.21227425	      1.57396467	    -77.79516357	  -1459.40564803	      0.35522230	     -0.01945846	     -0.25165504	    301.55154755	      1.54556998	     -0.74228197	      4.91116860	    425.61133140	   -313.60356004	      0.43494714	     -0.10550554	      0.77503601	    377.39614808
      0.43000000	      0.56583290	      0.38920598	      1.83673047	    339.20001774	  -1236.64486767	      1.97171229	      0.08419063	      0.30443442	    166.81366837	      0.71748503	      0.28470788	      1.48423242	   -139.30041320	  -1414.72501503	      0.38854102	     -0.02772681	     -0.35858916	    429.68785447	      1.76756500	     -0.42283741	      4.71771259	    452.31762240	   -285.29535027	      0.38427831	     -0.12966927	      0.95254099	    463.83044947
      0.44000000	      0.50907973	      0.41272858	      1.58453805	    281.12262143	  -1223.43431788	      1.97691466	      0.10857093	      0.39259387	    215.12030008	      0.57770955	      0.35846451	      1.86729580	    103.40166876	  -1562.31432555	      0.28103374	     -0.01670878	     -0.21609357	    258.93917571	      1.63574711	     -0.55649470	      5.09828260	    442.93723616	   -335.14220771	      0.48402344	     -0.07975389	      0.58586623	    285.28178982
      0.45000000	      0.32615249	     -0.63914660	      2.92930987	    360.37839083	  -1327.18443727	      2.12625802	      0.01794802	      0.06490028	     35.56185816	      1.09481055	     39.55976420	    -69.35154382	    404.97951176	  -1700.74042146	      0.18497260	      0.11361634	      1.46939311	  -1760.73470822	      1.77699629	     -0.37727014	      4.63248820	    424.18323586	   -284.31740573	      0.37440467	     -0.16005073	      1.17572097	    572.50574350
      0.46000000	      0.29182251	      0.20446586	      2.58044442	    345.68940117	  -1316.88061235	      2.11486708	      0.07198684	      0.26030536	    142.63332110	     40.22648036	    120.43313706	   -301.97448579	    368.25043673	  -1678.20165345	      0.20141193	     -0.08986135	     -1.16217125	   1392.59892096	      1.51202178	     -0.10366895	      4.90600500	    460.53911300	   -307.35659166	      0.43188259	     -0.09924892	      0.72907529	    355.01602940
      0.47000000	      0.74722017	      0.39456776	     -1.68877250	    419.89340457	  -1165.74180675	      1.80158858	      0.05514058	      0.19938906	    109.25446774	    162.60383312	    236.67478429	  -1421.49182265	    384.00898175	  -1725.65182033	      0.16283001	     -0.25198176	     -3.25886447	   3905.01067714	      1.22951645	     -1.16413114	      4.74053142	    493.90937953	   -330.23226159	      0.48819004	     -0.09312730	      0.68410638	    333.11885949
      0.48000000	      0.33781521	      0.34082202	      1.77770614	    541.73827594	  -1399.92943165	      2.16748531	      0.04496193	      0.16258293	     89.08668936	    -64.08507815	     57.99792331	  -1809.69551894	    400.40144463	  -1727.86800630	      0.16203830	     -0.00865538	     -0.11193948	    134.13410789	      1.49707086	     -0.79599122	      4.83237121	    484.63464205	   -356.25003919	      0.53902834	     -0.06258575	      0.45975032	    223.87088594
      0.49000000	      0.75149124	     -0.40782097	      3.29652070	    486.32463099	  -1385.21381196	      2.16859655	      0.00861445	      0.03114997	     17.06850447	    -62.90325298	    190.07159124	  -1817.49096002	    402.64180678	  -1751.51153324	      0.14245153	     -0.67608639	     -8.74378329	  10477.44310924	      2.01240295	     -0.71157133	      4.79456671	    494.28413396	   -311.65647889	      0.45014683	     -0.15804118	      1.16095897	    565.31753047
      0.50000000	      0.64647194	      0.22600326	      0.78693762	    494.30383411	  -1752.78780989	      2.83539084	     -0.08575076	     -0.31007585	   -169.90487110	     -7.30420288	    384.64387793	  -1945.92863977	    401.57107542	  -1779.49789362	      0.11902687	     -0.40957828	     -5.29705050	   6347.31481955	      2.13018066	     -0.09901865	      4.47866665	    505.08966778	   -318.14057432	      0.46648364	     -0.16144186	      1.18594009	    577.48184170
      0.51000000	      0.88752462	     -0.13841064	      1.76684319	    498.29712267	  -1527.39641887	      2.42203685	     -0.09248616	     -0.33443115	   -183.25026251	     49.16582594	    286.42680987	  -1990.31163733	    399.64107765	  -1790.98120668	      0.10931911	     -0.24652277	     -3.18826370	   3820.41164957	      2.31834712	     -0.35309634	      3.80075922	    507.32115094	   -292.44591699	      0.41433989	     -0.17715552	      1.30137147	    633.69001605
